# xmcd CD database file
#
# Track frame offsets:
#	150
#	38069
#	63845
#	91469
#	106416
#	149489
#	183688
#	224565
#	248872
#	270436
#
# Disc length: 3940 seconds
#
# Revision: 0
# Processed by: cddbd v1.5.2PL0 Copyright (c) Steve Scherf et al.
# Submitted via: CDex 1.51
#
DISCID=950f620a
DTITLE=Gerry Richardson's Big Idea - Cookin' at the Cluny
DYEAR=2003
DGENRE=Jazz
TTITLE0=Take the Tee Train (for Richard Tee)
TTITLE1=Stone Church
TTITLE2=Abdullah's Brand new bag
TTITLE3=All about McGriff
TTITLE4=Tower of Cheddar
TTITLE5=Who knows where the time goes
TTITLE6=African Sunset
TTITLE7=Waltz for the Poet (for Bill Evans)
TTITLE8=Samba to Phrygia
TTITLE9=Mission Statement
EXTD=YEAR: 2003
EXTT0=
EXTT1=
EXTT2=
EXTT3=
EXTT4=
EXTT5=
EXTT6=
EXTT7=
EXTT8=
EXTT9=
PLAYORDER=
